<?xml version="1.0" standalone="no"?>
<!DOCTYPE svg PUBLIC "-//W3C//DTD SVG 20010904//EN"
 "http://www.w3.org/TR/2001/REC-SVG-20010904/DTD/svg10.dtd">
<svg version="1.0" xmlns="http://www.w3.org/2000/svg"
 width="500.000000pt" height="500.000000pt" viewBox="0 0 500.000000 500.000000"
 preserveAspectRatio="xMidYMid meet">
<metadata>
Created by potrace 1.14, written by Peter Selinger 2001-2017
</metadata>
<g transform="translate(0.000000,500.000000) scale(0.100000,-0.100000)"
fill="#000000" stroke="none">
<path d="M2580 4993 c-179 -24 -342 -81 -481 -169 -175 -110 -349 -314 -420
-490 -55 -138 -69 -212 -70 -369 0 -110 6 -158 32 -254 124 -459 556 -704
1034 -585 276 68 486 306 487 549 0 83 -6 118 -33 196 -34 104 -122 218 -207
269 -110 67 -253 71 -387 11 -112 -51 -164 -144 -118 -211 45 -66 97 -90 190
-88 106 2 177 -35 189 -98 16 -88 -65 -213 -171 -263 -167 -79 -326 -67 -463
33 -120 89 -183 224 -186 396 -1 116 6 166 37 251 34 92 69 143 149 222 154
150 347 223 578 221 151 -1 281 -33 404 -97 75 -39 202 -132 236 -174 70 -85
93 -118 128 -183 37 -68 75 -170 87 -228 2 -12 6 -26 9 -31 6 -10 18 -116 20
-185 4 -116 -36 -301 -91 -416 -153 -323 -505 -579 -900 -654 -98 -18 -305
-19 -403 -1 -94 18 -232 53 -380 98 -175 53 -246 71 -395 103 -37 8 -179 18
-250 18 -119 0 -207 -11 -325 -39 -88 -22 -181 -54 -264 -94 -250 -119 -415
-264 -557 -491 l-59 -94 0 -576 0 -576 55 -87 c123 -196 251 -323 440 -434
346 -204 777 -198 1103 14 71 46 206 180 254 253 94 143 148 299 154 445 10
266 -147 576 -366 723 -161 108 -381 143 -545 87 -198 -68 -307 -167 -360
-326 -46 -138 -32 -279 38 -384 101 -151 351 -167 446 -29 32 46 19 74 -54
115 -71 40 -95 71 -95 121 0 48 20 87 61 122 140 118 361 49 474 -149 50 -88
67 -141 70 -219 5 -132 -44 -246 -150 -351 -194 -194 -505 -245 -774 -128
-149 64 -321 239 -394 398 -25 55 -64 179 -76 245 -16 89 -6 293 19 380 71
249 264 485 472 579 77 35 193 68 273 78 115 15 366 9 460 -11 385 -80 690
-304 830 -609 56 -123 137 -387 161 -527 3 -14 7 -32 10 -40 3 -8 8 -24 10
-36 52 -269 179 -553 342 -764 53 -68 198 -207 261 -249 139 -95 344 -169 539
-196 135 -18 376 -13 487 10 358 74 617 256 804 564 l51 84 0 561 0 561 -36
61 c-51 86 -148 199 -224 261 -102 83 -245 151 -357 169 -15 2 -37 6 -49 9
-32 7 -183 7 -249 0 -63 -7 -166 -30 -200 -44 -11 -5 -45 -19 -75 -31 -269
-109 -479 -405 -493 -694 -14 -293 134 -538 383 -634 74 -28 112 -35 194 -34
213 2 353 105 405 297 16 57 13 154 -4 206 -19 54 -96 136 -139 148 -60 16
-89 -19 -129 -155 -21 -70 -43 -111 -68 -125 -53 -28 -141 1 -208 70 -122 125
-113 332 22 478 164 179 480 206 696 62 54 -36 71 -53 136 -130 64 -75 129
-231 148 -350 29 -185 -1 -361 -90 -531 -54 -103 -221 -263 -325 -311 -20 -10
-40 -22 -43 -27 -3 -6 -17 -10 -30 -10 -13 0 -26 -4 -29 -9 -6 -10 -76 -29
-133 -36 -21 -3 -54 -7 -73 -10 -48 -7 -246 -7 -295 0 -159 22 -296 68 -393
132 -201 134 -376 397 -446 671 -37 145 -42 332 -12 487 4 17 9 46 12 65 8 48
75 234 109 300 86 171 230 345 404 490 297 246 427 405 524 642 124 299 118
678 -13 999 -27 66 -124 246 -140 259 -3 3 -21 25 -40 50 -72 96 -292 290
-328 290 -6 0 -12 4 -14 8 -11 25 -278 131 -378 149 -14 2 -45 9 -70 14 -43
10 -318 19 -370 12z"/>
<path d="M2650 4516 c-4 -11 -7 -73 -7 -136 l2 -115 28 -3 c27 -3 29 -1 23 25
-5 27 -10 121 -7 153 3 31 67 -84 80 -145 7 -32 43 -47 63 -27 6 6 10 56 9
114 -1 110 -2 126 -14 145 -11 18 -42 8 -40 -13 1 -11 4 -44 8 -74 l5 -55 -47
72 c-51 78 -87 99 -103 59z"/>
<path d="M2425 4477 c-27 -11 -53 -25 -56 -29 -10 -15 49 -214 76 -256 1 -1
39 12 84 30 l81 32 -25 25 -25 25 -20 -22 c-38 -41 -93 -20 -84 32 3 20 21 36
42 36 7 0 12 13 12 30 0 36 -20 40 -49 9 -21 -23 -41 -18 -41 10 0 24 31 51
58 51 17 0 22 6 22 25 0 30 -9 30 -75 2z"/>
<path d="M2956 4465 c-22 -33 -20 -38 10 -31 14 4 34 4 45 1 19 -6 19 -7 -1
-35 -11 -15 -20 -32 -20 -38 0 -5 -7 -15 -15 -22 -9 -7 -13 -15 -11 -18 3 -2
0 -14 -5 -25 -6 -11 -15 -33 -19 -48 -7 -25 -5 -30 21 -43 22 -11 31 -12 34
-3 1 7 9 35 16 62 17 68 56 145 74 145 8 0 19 -9 25 -21 9 -16 14 -18 26 -8
34 28 2 66 -77 94 -59 21 -84 19 -103 -10z"/>
<path d="M3257 4315 c-32 -17 -122 -83 -171 -127 -33 -29 -36 -36 -25 -49 8
-8 37 -40 65 -70 l52 -56 16 33 15 33 -34 16 c-40 20 -47 34 -31 66 15 32 61
38 75 10 9 -15 17 -18 38 -12 38 10 40 28 4 48 -37 22 -40 40 -7 49 30 7 42 0
65 -36 15 -25 19 -27 43 -16 l27 11 -53 57 c-51 53 -55 56 -79 43z"/>
<path d="M2179 4276 c-11 -24 -9 -37 16 -98 6 -16 1 -18 -37 -18 -49 0 -85
-27 -75 -54 8 -20 88 -78 155 -113 52 -27 53 -28 68 -9 17 23 18 36 3 36 -17
0 -123 53 -143 72 -19 18 -19 18 5 18 13 0 47 -6 76 -14 69 -18 75 -3 22 56
-43 47 -54 87 -19 68 11 -6 46 -32 78 -59 l59 -49 16 28 c17 27 16 28 -16 52
-46 34 -148 94 -174 102 -18 6 -25 2 -34 -18z"/>
<path d="M478 1518 c-10 -12 -18 -29 -19 -38 -5 -81 -17 -102 -47 -84 -26 16
-27 69 -3 93 27 27 26 31 -7 31 -65 0 -90 -97 -39 -154 27 -31 63 -38 99 -20
27 14 32 26 42 87 7 41 16 67 25 67 14 0 39 -35 35 -50 -11 -46 -8 -55 13 -58
39 -6 43 70 7 126 -20 31 -82 31 -106 0z"/>
<path d="M537 1275 c-55 -19 -87 -43 -101 -77 -17 -40 -11 -67 29 -113 28 -34
38 -40 74 -40 35 0 47 7 86 45 68 67 85 153 35 180 -32 17 -83 19 -123 5z m84
-45 c29 -16 23 -45 -19 -90 -44 -46 -63 -49 -92 -18 -33 36 -23 69 30 96 51
25 54 26 81 12z"/>
<path d="M4480 1227 c-19 -6 -41 -16 -47 -23 -7 -7 -18 -14 -24 -16 -21 -7 -1
-55 37 -92 38 -37 83 -62 127 -70 14 -2 30 -7 34 -9 17 -10 51 13 55 38 5 23
2 26 -21 24 -14 -1 -33 -1 -42 -1 -20 2 -32 42 -23 78 6 23 10 25 37 20 17 -3
38 -13 48 -22 15 -13 17 -13 23 8 3 13 6 28 6 35 0 28 -148 49 -210 30z m48
-82 c-1 -50 -11 -55 -45 -23 -29 27 -29 46 0 58 42 17 47 12 45 -35z"/>
<path d="M691 1095 c-59 -50 -76 -154 -33 -201 43 -48 118 -47 140 1 15 33 15
42 0 27 -19 -19 -66 -14 -88 8 -27 27 -26 78 3 113 34 43 97 46 97 5 0 -14 6
-19 22 -16 32 4 34 33 4 63 -35 35 -102 35 -145 0z"/>
<path d="M1245 1090 c-17 -19 -17 -21 14 -72 33 -54 112 -148 125 -148 10 0
116 93 116 101 0 4 -11 14 -25 23 -25 17 -26 16 -36 -13 -11 -32 -39 -47 -63
-34 -22 12 -72 84 -87 126 -15 43 -19 44 -44 17z"/>
<path d="M4383 1040 c-11 -17 -8 -22 31 -45 24 -14 50 -33 58 -42 11 -14 10
-16 -12 -10 -14 3 -52 9 -85 12 -48 6 -63 4 -74 -8 -8 -11 -9 -21 -3 -34 12
-21 102 -108 153 -146 35 -26 36 -26 52 -9 21 23 21 32 3 32 -8 0 -16 3 -18 8
-1 4 -27 25 -55 46 -29 21 -53 42 -53 48 0 15 71 2 140 -26 l59 -24 15 23 c15
23 14 25 -25 62 -23 21 -51 47 -63 58 -23 23 -97 75 -106 75 -3 0 -11 -9 -17
-20z"/>
<path d="M916 1033 c-18 -62 -29 -242 -15 -244 54 -6 52 -8 50 66 -2 62 8 134
24 176 4 11 -3 15 -24 17 -21 2 -31 -3 -35 -15z"/>
<path d="M1092 1037 c-46 -55 -58 -158 -28 -230 15 -37 25 -42 59 -29 16 7 16
9 3 27 -24 32 -20 63 12 78 15 7 33 12 40 11 6 -1 17 -2 23 -3 7 -1 9 -16 5
-41 -6 -46 6 -58 39 -36 23 15 23 17 10 71 -25 109 -123 201 -163 152z m68
-57 c28 -28 26 -33 -20 -52 -47 -20 -56 -11 -36 37 17 40 28 43 56 15z"/>
<path d="M4201 861 c-11 -7 -9 -15 10 -42 13 -19 27 -36 30 -39 3 -3 11 -15
18 -27 12 -23 3 -31 -14 -14 -6 5 -36 23 -68 40 -46 24 -63 29 -78 21 -10 -6
-19 -17 -19 -24 0 -24 38 -100 106 -210 8 -13 17 -16 33 -11 11 3 21 10 21 15
0 5 -20 38 -45 73 -39 56 -54 87 -42 87 16 0 74 -39 115 -75 36 -33 54 -43 70
-38 12 3 22 12 22 21 0 33 -95 204 -124 224 -14 10 -18 10 -35 -1z"/>
<path d="M3606 722 c-24 -108 -31 -202 -15 -203 8 0 23 -2 34 -4 98 -19 138 1
155 77 25 111 -32 198 -130 198 -27 0 -29 -3 -44 -68z m113 -5 c29 -54 14
-142 -27 -160 -20 -9 -27 -8 -38 8 -17 22 -17 44 -4 116 14 72 42 87 69 36z"/>
<path d="M3907 768 c-27 -14 -57 -82 -60 -137 -7 -97 37 -148 118 -136 79 10
107 43 100 118 -11 105 -96 190 -158 155z m66 -63 c20 -19 39 -79 35 -107 -2
-12 -15 -29 -30 -37 -23 -13 -30 -13 -53 -1 -25 14 -27 18 -23 71 6 80 35 110
71 74z"/>
</g>
</svg>
